<svg width="32" height="32" viewBox="0 0 32 32" fill="none" xmlns="http://www.w3.org/2000/svg">
  <!-- Background circle with gradient -->
  <defs>
    <linearGradient id="bgGradient" x1="0%" y1="0%" x2="100%" y2="100%">
      <stop offset="0%" style="stop-color:#1a1a1a;stop-opacity:1" />
      <stop offset="100%" style="stop-color:#2d2d2d;stop-opacity:1" />
    </linearGradient>
    <linearGradient id="goldGradient" x1="0%" y1="0%" x2="100%" y2="100%">
      <stop offset="0%" style="stop-color:#FFD700;stop-opacity:1" />
      <stop offset="50%" style="stop-color:#FFA500;stop-opacity:1" />
      <stop offset="100%" style="stop-color:#FF8C00;stop-opacity:1" />
    </linearGradient>
    <linearGradient id="encryptGradient" x1="0%" y1="0%" x2="100%" y2="100%">
      <stop offset="0%" style="stop-color:#00BFFF;stop-opacity:1" />
      <stop offset="100%" style="stop-color:#1E90FF;stop-opacity:1" />
    </linearGradient>
  </defs>
  
  <!-- Main background circle -->
  <circle cx="16" cy="16" r="15" fill="url(#bgGradient)" stroke="url(#goldGradient)" stroke-width="1"/>
  
  <!-- Inner encryption rings -->
  <circle cx="16" cy="16" r="12" fill="none" stroke="url(#encryptGradient)" stroke-width="0.8" opacity="0.7"/>
  <circle cx="16" cy="16" r="9" fill="none" stroke="url(#encryptGradient)" stroke-width="0.6" opacity="0.5"/>
  <circle cx="16" cy="16" r="6" fill="none" stroke="url(#encryptGradient)" stroke-width="0.4" opacity="0.3"/>
  
  <!-- Central lottery ball -->
  <circle cx="16" cy="16" r="4" fill="url(#goldGradient)"/>
  
  <!-- Encryption symbols around the ball -->
  <g opacity="0.8">
    <!-- Top encryption symbol -->
    <path d="M16 10 L14 12 L18 12 Z" fill="url(#encryptGradient)"/>
    <!-- Right encryption symbol -->
    <path d="M22 16 L20 14 L20 18 Z" fill="url(#encryptGradient)"/>
    <!-- Bottom encryption symbol -->
    <path d="M16 22 L14 20 L18 20 Z" fill="url(#encryptGradient)"/>
    <!-- Left encryption symbol -->
    <path d="M10 16 L12 14 L12 18 Z" fill="url(#encryptGradient)"/>
  </g>
  
  <!-- Diagonal encryption lines -->
  <g opacity="0.6">
    <path d="M8 8 L10 10" stroke="url(#encryptGradient)" stroke-width="0.8"/>
    <path d="M24 8 L22 10" stroke="url(#encryptGradient)" stroke-width="0.8"/>
    <path d="M8 24 L10 22" stroke="url(#encryptGradient)" stroke-width="0.8"/>
    <path d="M24 24 L22 22" stroke="url(#encryptGradient)" stroke-width="0.8"/>
  </g>
  
  <!-- Central number "7" (lucky number) -->
  <text x="16" y="19" font-family="Arial, sans-serif" font-size="6" font-weight="bold" text-anchor="middle" fill="#1a1a1a">7</text>
</svg>
